<?xml version="1.0" standalone="no"?>
<!DOCTYPE svg PUBLIC "-//W3C//DTD SVG 20010904//EN"
 "http://www.w3.org/TR/2001/REC-SVG-20010904/DTD/svg10.dtd">
<svg version="1.0" xmlns="http://www.w3.org/2000/svg"
 width="1320.000000pt" height="980.000000pt" viewBox="0 0 1320.000000 980.000000"
 preserveAspectRatio="xMidYMid meet">

<g transform="translate(0.000000,980.000000) scale(0.100000,-0.100000)"
fill="#000000" stroke="none">
<path d="M2948 9783 c-9 -10 -21 -41 -28 -70 -22 -94 -99 -202 -173 -242 -22
-12 -29 -9 -93 39 -38 29 -78 60 -89 70 -11 10 -39 21 -61 25 -23 3 -89 34
-148 67 -150 85 -228 101 -247 51 -23 -60 -107 -169 -237 -306 -75 -79 -153
-169 -171 -199 l-35 -55 -65 45 c-83 57 -207 115 -289 135 -94 24 -98 20 -105
-122 -15 -261 -81 -462 -191 -582 -53 -57 -104 -130 -148 -209 -13 -25 -56
-103 -96 -175 -90 -164 -117 -248 -131 -401 -28 -319 65 -670 237 -885 32 -41
78 -90 103 -110 33 -27 47 -48 56 -81 16 -60 80 -130 144 -157 l52 -23 -6 -71
c-4 -59 0 -85 20 -147 44 -131 90 -209 171 -294 154 -160 618 -293 1227 -353
l80 -8 12 -65 c6 -36 13 -92 15 -125 3 -57 2 -60 -27 -74 -46 -23 -207 -26
-353 -7 -190 24 -202 25 -202 16 0 -16 -52 -71 -82 -86 -21 -11 -78 -18 -177
-24 -172 -10 -242 -24 -492 -95 -288 -82 -436 -158 -809 -413 l-215 -147 -3
-51 -3 -50 -67 -17 c-120 -28 -182 -57 -232 -106 -63 -60 -80 -115 -56 -181
21 -60 20 -70 -9 -110 -14 -19 -25 -46 -25 -61 0 -27 4 -31 90 -97 23 -18 30
-31 30 -58 0 -72 69 -154 129 -154 12 0 44 11 71 25 27 14 58 25 68 25 10 0
38 -21 62 -46 70 -71 111 -87 164 -62 36 16 61 77 82 196 9 56 22 109 28 117
27 38 489 204 686 249 109 24 331 58 338 51 2 -2 -19 -158 -47 -347 -89 -601
-120 -933 -106 -1151 l7 -109 32 -13 c17 -7 73 -15 124 -19 51 -3 101 -10 111
-16 17 -9 19 -31 26 -247 11 -314 10 -1243 -1 -1558 l-9 -250 -55 -26 c-101
-49 -161 -130 -217 -294 l-23 -70 22 -17 c42 -33 148 -61 248 -65 58 -3 174 3
297 16 136 14 274 21 415 21 141 1 240 6 293 15 44 8 96 15 116 15 62 0 72 16
77 116 4 85 6 91 37 124 19 19 41 49 50 65 17 30 17 30 11 -30 -20 -193 -20
-201 3 -224 28 -28 114 -28 247 0 91 19 119 21 334 15 129 -3 349 -9 487 -13
l253 -6 20 44 c25 57 25 109 -1 217 l-22 87 -95 91 -96 90 17 36 c29 61 30 91
8 221 -15 87 -21 161 -20 244 1 65 -3 163 -9 218 -12 101 -14 126 -32 315 -37
415 -60 627 -84 785 -15 98 -13 105 37 105 61 0 64 6 66 157 1 76 -7 329 -19
563 -20 427 -24 673 -12 830 l7 85 80 -3 c167 -6 412 30 575 84 108 37 257
117 348 189 96 76 175 176 236 298 52 104 69 163 92 321 20 136 15 236 -16
297 -18 34 -20 44 -9 47 8 3 34 26 59 51 58 59 82 130 82 244 1 120 -6 144
-52 167 -21 11 -62 47 -92 80 -29 33 -70 72 -90 85 -27 18 -38 33 -38 49 0 22
7 26 58 36 31 7 103 30 160 51 56 22 118 39 137 39 42 0 88 -37 139 -113 75
-111 102 -129 182 -128 68 0 143 34 311 137 62 38 156 94 209 124 116 66 216
155 250 222 32 63 54 178 54 276 -1 86 -14 133 -53 183 -39 52 -67 119 -66
164 l0 40 37 -41 c20 -23 66 -90 101 -150 96 -164 102 -171 227 -284 214 -192
382 -288 590 -336 125 -29 344 -25 499 10 118 27 362 104 419 133 15 8 32 11
37 6 4 -4 9 -75 11 -157 l3 -149 110 1 c156 2 302 10 695 39 272 20 435 26
769 29 l424 3 91 89 c50 49 138 138 196 198 l105 108 75 13 c284 51 844 28
1245 -52 157 -31 169 -31 231 4 52 30 105 88 209 225 33 44 80 94 104 110 113
78 121 93 137 256 3 36 20 144 36 240 47 269 42 490 -10 490 -9 0 -67 -9 -127
-20 -198 -34 -465 -53 -465 -32 0 4 84 91 188 194 123 123 199 206 221 245 65
111 102 165 157 225 97 105 102 140 48 334 -87 309 -86 304 -86 412 0 161 70
145 -627 139 -322 -3 -602 -8 -621 -10 -19 -3 -75 -8 -125 -12 -49 -3 -155
-15 -235 -26 -118 -17 -152 -25 -180 -45 -19 -14 -95 -67 -169 -119 -73 -52
-137 -95 -142 -95 -5 0 -9 17 -9 39 0 50 -41 191 -87 301 -20 47 -39 89 -43
93 -12 14 -184 27 -477 37 -417 14 -741 -4 -1033 -56 l-86 -16 -64 -85 c-36
-46 -84 -112 -107 -146 -112 -165 -116 -168 -209 -142 -76 22 -379 32 -491 16
-117 -16 -149 -28 -206 -77 -57 -49 -136 -104 -149 -104 -4 0 -8 19 -8 43 0
62 -18 115 -44 132 -13 9 -69 20 -132 26 -60 6 -153 17 -207 25 -145 21 -212
18 -274 -10 -82 -39 -170 -102 -278 -201 -55 -51 -115 -100 -133 -109 l-33
-17 -82 77 c-286 266 -701 425 -1152 441 -186 6 -255 -4 -473 -69 -134 -40
-138 -42 -192 -97 -79 -82 -129 -119 -275 -206 -71 -43 -146 -89 -165 -102
-19 -12 -38 -23 -42 -23 -4 0 -17 33 -28 73 -36 122 -84 205 -197 347 -137
170 -195 212 -223 159 -6 -11 -15 -57 -20 -102 -7 -71 -23 -137 -32 -137 -2 0
-53 49 -113 108 -130 128 -228 186 -318 187 l-51 0 -38 -75 c-22 -41 -50 -92
-64 -113 l-25 -38 -92 84 c-110 100 -165 138 -234 163 -33 12 -55 26 -62 41
-13 28 -61 31 -83 6z m156 -140 c75 -45 187 -133 215 -169 12 -15 21 -36 21
-48 0 -12 6 -31 14 -41 12 -16 17 -17 43 -6 49 20 96 74 148 170 27 50 52 91
55 91 24 0 115 -77 223 -186 70 -71 140 -137 155 -146 27 -16 30 -16 60 2 39
24 76 96 92 178 7 34 15 62 19 62 21 -1 120 -147 176 -258 80 -160 204 -566
185 -602 -15 -28 -13 -30 30 -30 53 0 110 30 193 101 38 33 72 59 77 59 22 0
60 -264 67 -467 10 -297 -34 -507 -145 -696 -37 -65 -34 -77 21 -77 33 0 33
-2 -2 -115 -28 -88 -29 -90 -63 -96 -20 -3 -52 -15 -72 -27 -21 -12 -41 -22
-45 -22 -13 0 -22 73 -27 213 -4 148 -10 164 -96 256 -43 46 -64 61 -85 61
-21 1 -36 11 -61 45 l-33 45 -40 -21 c-38 -19 -42 -19 -65 -4 -16 10 -24 25
-24 44 0 39 -21 55 -46 36 -30 -22 -42 -18 -63 23 -10 20 -29 46 -41 57 l-22
20 -44 -49 -44 -48 -60 22 c-64 24 -90 22 -90 -9 0 -21 -47 -43 -125 -61 -37
-8 -53 -7 -95 10 -72 28 -121 25 -230 -16 -130 -49 -182 -53 -240 -20 -25 14
-63 35 -85 45 l-40 20 -163 -47 -162 -46 -55 27 c-72 35 -101 34 -160 -5 -26
-18 -60 -41 -74 -50 -30 -21 -81 -24 -81 -5 0 6 12 39 25 72 14 33 25 61 25
63 0 11 -43 -5 -117 -44 l-87 -46 -16 22 c-31 46 -69 80 -89 80 -25 0 -51 -36
-51 -71 0 -46 -9 -60 -36 -53 -45 11 -69 -3 -94 -56 -13 -28 -26 -49 -29 -47
-72 37 -83 40 -108 31 -25 -8 -85 -75 -95 -105 -3 -8 -20 -3 -56 15 -87 44
-92 41 -128 -92 -12 -44 -25 -70 -46 -87 l-30 -25 12 -93 c12 -99 46 -286 59
-327 l8 -26 -71 0 c-90 0 -159 -29 -217 -91 l-40 -44 -44 36 c-177 144 -275
409 -275 742 0 179 40 364 106 495 14 27 90 146 171 265 230 342 283 475 283
703 0 55 2 100 3 100 2 0 32 -9 68 -21 105 -35 171 -74 239 -143 35 -36 72
-66 81 -66 30 0 58 33 87 104 42 97 89 152 240 278 128 107 163 143 192 201 7
15 19 27 25 27 20 0 176 -99 250 -158 39 -31 104 -87 146 -124 42 -37 81 -68
87 -68 40 0 204 180 283 312 19 32 40 58 48 58 7 0 41 -17 75 -37z m7600 8
c30 -25 106 -149 126 -205 10 -30 22 -76 25 -101 7 -45 7 -45 -30 -61 -21 -8
-90 -22 -154 -30 -204 -25 -265 -35 -307 -54 -23 -10 -44 -22 -46 -26 -3 -5
-2 -36 2 -69 76 -595 94 -757 119 -1040 20 -219 24 -282 37 -512 l7 -122 26 4
c148 24 354 38 415 28 49 -8 50 -8 63 -58 18 -72 42 -253 49 -381 l7 -111 -66
-7 c-175 -18 -408 -27 -902 -36 -297 -5 -583 -14 -635 -20 -52 -5 -115 -10
-139 -10 l-43 0 7 68 c3 37 17 123 30 192 13 69 27 157 33 196 25 182 100 211
313 124 99 -41 159 -58 249 -70 41 -5 86 -13 99 -16 l24 -7 -7 234 c-7 274
-29 652 -51 879 -12 126 -26 297 -40 495 -9 116 -18 221 -21 234 l-5 24 -112
-6 c-62 -4 -166 -16 -232 -27 -155 -26 -225 -27 -225 -2 0 9 -5 77 -11 150
-18 203 4 278 94 321 23 11 67 25 97 30 31 5 299 9 621 8 465 -2 569 -4 583
-16z m2146 -150 l94 -6 18 -105 c9 -58 28 -159 43 -225 14 -66 35 -166 47
-222 l22 -101 -59 -74 c-156 -195 -374 -419 -539 -553 -69 -57 -86 -75 -86
-97 0 -15 -9 -42 -20 -60 -25 -41 -25 -69 -2 -97 17 -21 19 -21 262 -11 135 6
281 15 324 20 44 6 85 10 93 10 38 0 -4 -382 -69 -622 l-21 -78 -71 0 c-39 0
-170 -7 -291 -14 -121 -8 -283 -17 -360 -20 -77 -3 -192 -8 -255 -11 -63 -3
-170 -2 -238 3 l-122 7 -4 125 c-2 86 -12 168 -31 265 -23 110 -29 168 -29
271 l-1 131 43 57 c48 63 109 112 364 296 243 175 372 303 457 453 l33 57 -36
15 c-46 19 -167 19 -316 0 -167 -21 -515 -62 -587 -69 l-62 -6 -10 53 c-21
105 -59 523 -48 533 17 18 343 58 587 73 148 10 719 10 870 2z m-6810 -70
c147 -34 232 -66 395 -146 169 -83 274 -161 341 -249 241 -323 301 -941 128
-1323 -61 -134 -131 -216 -229 -265 -61 -31 -105 -64 -105 -81 0 -5 20 -32 44
-60 48 -57 127 -176 166 -249 l25 -47 -35 -36 c-19 -20 -73 -62 -120 -92 -47
-30 -118 -80 -158 -110 -97 -73 -151 -97 -189 -82 -45 17 -72 49 -115 134 -22
44 -49 90 -60 102 -20 21 -22 21 -51 7 -16 -9 -53 -35 -82 -59 -97 -78 -240
-113 -415 -100 -233 17 -447 113 -611 273 l-69 68 0 56 c0 68 -21 131 -60 179
l-29 37 24 88 c29 104 30 125 10 164 -14 27 -14 33 1 62 30 58 74 200 94 305
45 232 10 725 -60 864 -21 40 -57 63 -84 53 -8 -3 -43 -37 -77 -76 -35 -39
-65 -66 -67 -60 -6 18 43 127 91 204 88 141 224 257 391 338 210 100 360 131
626 126 148 -2 204 -7 280 -25z m3204 7 c3 -13 6 -89 6 -170 0 -117 -3 -150
-15 -162 -8 -8 -12 -22 -9 -30 3 -9 1 -16 -5 -16 -6 0 -11 -7 -11 -15 0 -18
16 -20 23 -2 3 9 9 8 22 -5 17 -16 17 -17 -3 -11 -12 3 -22 1 -22 -5 0 -23
-25 -18 -26 5 -2 31 -8 36 -33 28 -12 -3 -21 -15 -21 -25 0 -11 -9 -24 -20
-30 -19 -10 -20 -9 -14 32 4 24 12 46 18 50 6 4 8 8 4 8 -4 0 -3 12 3 27 6 17
6 30 0 36 -11 11 -13 7 -27 -48 l-7 -30 -7 30 c-6 23 -7 18 -7 -24 0 -38 3
-49 9 -35 6 13 7 8 3 -16 -3 -20 2 -60 11 -89 8 -29 13 -58 11 -64 -2 -7 -11
22 -21 63 -10 41 -21 84 -26 95 -13 30 -50 160 -50 176 0 8 9 22 20 31 10 10
44 51 75 93 33 44 61 73 67 69 7 -5 8 -2 4 5 -8 12 19 51 34 51 4 0 10 -10 14
-22z m2090 -129 c8 -35 18 -109 21 -164 4 -55 8 -112 10 -128 2 -15 -1 -25 -5
-22 -5 3 -12 46 -16 96 -8 104 -24 102 -22 -4 0 -37 -2 -70 -5 -74 -4 -3 -7 9
-7 27 0 35 -14 32 -23 -5 -4 -18 -5 -18 -6 3 -2 33 -21 27 -21 -8 0 -27 -3
-30 -30 -30 l-30 0 0 -80 c0 -75 -1 -80 -22 -80 -12 0 -30 -7 -40 -17 -17 -15
-18 -15 -18 0 0 13 -9 17 -35 17 -33 0 -35 2 -36 33 -1 27 -3 26 -9 -13 -4
-24 -3 -60 1 -80 13 -53 11 -117 -4 -132 -23 -23 -26 -45 -11 -94 8 -26 12
-49 10 -51 -8 -9 -36 106 -29 123 4 12 3 15 -5 10 -7 -4 -12 -3 -12 3 0 16 18
22 24 9 4 -7 4 -3 2 10 -4 23 9 31 17 10 4 -10 6 -10 6 -1 1 6 -3 15 -9 18 -5
3 -11 23 -11 43 -1 20 -3 29 -6 19 -5 -18 -5 -18 -18 0 -11 15 -13 11 -9 -32
3 -40 -3 -27 -31 68 -42 145 -52 222 -35 281 13 48 66 120 81 110 5 -3 8 0 7
7 -4 18 108 99 200 145 46 22 84 47 88 58 5 17 8 17 15 4 5 -9 15 -44 23 -79z
m-3644 -39 c63 -6 134 -13 157 -16 l42 -6 -6 -123 c-7 -144 7 -273 43 -385 30
-94 67 -146 128 -184 39 -25 58 -30 110 -30 176 0 228 125 205 497 -6 98 -8
181 -5 184 16 17 145 22 363 17 l242 -7 10 -26 c67 -177 123 -504 136 -796 14
-323 -51 -749 -145 -952 -103 -222 -336 -408 -606 -485 -98 -28 -263 -30 -367
-5 -82 20 -194 67 -262 110 -47 29 -197 152 -220 179 -113 136 -176 251 -219
401 -112 386 -97 970 38 1477 12 44 25 64 66 102 46 43 55 47 108 51 31 2 59
4 62 5 3 1 57 -3 120 -8z m-411 -108 c-11 -32 -33 -47 -52 -35 -7 4 -6 -1 2
-11 11 -13 16 -14 22 -4 18 29 15 -5 -11 -142 -16 -80 -32 -180 -36 -222 -3
-43 -10 -78 -15 -78 -5 0 -6 6 -3 14 7 19 -16 32 -27 15 -5 -8 -9 -25 -10 -39
l-1 -25 -9 25 c-5 17 -7 6 -4 -35 2 -33 2 -52 -1 -42 -3 9 -12 17 -20 17 -8 0
-16 15 -20 40 -9 55 -33 54 -36 -2 -1 -24 -3 -63 -4 -88 -1 -25 3 -57 8 -72 6
-16 6 -33 1 -43 -7 -13 -13 1 -22 55 -6 39 -8 76 -5 82 4 7 2 8 -4 4 -7 -4
-12 -1 -12 8 0 8 6 17 13 19 8 4 7 6 -3 6 -21 2 -64 142 -47 153 8 5 7 8 -4 8
-9 0 -19 8 -22 18 -3 9 -12 34 -21 54 l-16 37 42 48 c23 26 48 47 55 47 7 -1
10 2 7 8 -6 9 9 23 119 106 39 28 78 52 88 52 10 0 21 4 24 10 4 6 -1 7 -12 3
-10 -4 -5 5 12 19 17 15 31 25 33 24 1 -2 -3 -17 -9 -34z m965 3 c-10 -8 -23
-14 -29 -14 -5 0 -1 6 9 14 11 8 24 15 30 15 5 0 1 -7 -10 -15z m2299 8 c-7
-2 -19 -2 -25 0 -7 3 -2 5 12 5 14 0 19 -2 13 -5z m-58 -13 c-11 -5 -16 -9
-12 -9 5 -1 2 -7 -5 -15 -14 -14 -78 -17 -78 -3 0 4 1 7 3 7 1 0 20 7 42 15
43 15 84 20 50 5z m-2300 -32 c-38 -21 -56 -41 -44 -49 8 -5 8 -8 0 -13 -6 -4
-11 -2 -11 4 0 6 -16 -1 -35 -16 -38 -29 -49 -55 -13 -30 12 9 27 16 33 16 5
-1 -1 -7 -15 -14 -14 -8 -32 -27 -40 -42 -9 -15 -22 -30 -30 -32 -8 -3 -5 7 9
27 33 46 14 38 -36 -16 -40 -43 -44 -52 -40 -85 7 -52 -9 -57 -17 -6 -7 41 -6
42 66 116 83 84 164 152 181 152 7 0 3 -6 -8 -12z m2256 -25 c12 -15 12 -16
-4 -10 -10 4 -25 7 -33 7 -9 0 -12 5 -9 10 9 15 31 12 46 -7z m-1184 -25 c-3
-7 -5 -2 -5 12 0 14 2 19 5 13 2 -7 2 -19 0 -25z m328 22 c-11 -5 -29 -8 -40
-8 -16 0 -15 2 5 8 34 11 60 11 35 0z m822 -47 c-3 -10 -5 -4 -5 12 0 17 2 24
5 18 2 -7 2 -21 0 -30z m-940 21 c-3 -3 -12 -4 -19 -1 -8 3 -5 6 6 6 11 1 17
-2 13 -5z m-157 -8 c0 -2 -9 -6 -20 -9 -11 -3 -18 -1 -14 4 5 9 34 13 34 5z
m88 -3 c-10 -2 -26 -2 -35 0 -10 3 -2 5 17 5 19 0 27 -2 18 -5z m-23 -31 c-3
-3 -11 0 -18 7 -9 10 -8 11 6 5 10 -3 15 -9 12 -12z m-4705 -16 c0 -2 -8 -10
-17 -17 -16 -13 -17 -12 -4 4 13 16 21 21 21 13z m-54 -51 c-9 -9 -22 -26 -31
-37 -8 -12 -18 -19 -22 -15 -7 8 45 67 60 67 4 0 1 -7 -7 -15z m6754 -31 c0
-19 -4 -33 -8 -30 -8 5 -4 66 4 66 2 0 4 -16 4 -36z m-3368 -17 c-6 -12 -13
-35 -15 -52 -3 -21 -4 -16 -6 16 0 25 4 50 11 57 17 17 23 5 10 -21z m68 23
c0 -5 -2 -10 -4 -10 -3 0 -8 5 -11 10 -3 6 -1 10 4 10 6 0 11 -4 11 -10z
m1108 -65 c-3 -3 -9 2 -12 12 -6 14 -5 15 5 6 7 -7 10 -15 7 -18z m2199 -22
c-3 -10 -5 -4 -5 12 0 17 2 24 5 18 2 -7 2 -21 0 -30z m-559 -30 c24 -57 34
-93 62 -233 11 -58 31 -138 42 -179 21 -73 22 -73 52 -68 17 3 95 17 173 32
79 14 153 25 165 23 19 -3 -1 -26 -128 -153 -218 -217 -225 -236 -200 -552 l9
-113 -87 0 c-48 0 -130 -5 -182 -11 -52 -6 -97 -9 -101 -6 -16 17 -67 599 -89
1013 l-6 122 53 7 c107 15 162 53 190 130 7 19 16 35 20 35 3 0 16 -21 27 -47z
m-1671 23 c-3 -8 -2 -29 3 -45 5 -17 5 -31 0 -31 -12 0 -22 48 -15 71 4 10 9
19 12 19 3 0 3 -6 0 -14z m-1180 -48 c-3 -8 -6 -5 -6 6 -1 11 2 17 5 13 3 -3
4 -12 1 -19z m1210 0 c-3 -8 -6 -5 -6 6 -1 11 2 17 5 13 3 -3 4 -12 1 -19z
m2233 -67 c0 -3 -4 -1 -9 5 -5 5 -12 27 -15 49 l-6 40 15 -45 c8 -25 15 -47
15 -49z m423 82 c-7 -2 -21 -2 -30 0 -10 3 -4 5 12 5 17 0 24 -2 18 -5z m-266
-39 c-3 -3 -12 -4 -19 -1 -8 3 -5 6 6 6 11 1 17 -2 13 -5z m-54 -11 c-7 -2
-19 -2 -25 0 -7 3 -2 5 12 5 14 0 19 -2 13 -5z m-2366 -25 c-3 -8 -6 -5 -6 6
-1 11 2 17 5 13 3 -3 4 -12 1 -19z m17 -25 c-5 -5 -12 -12 -16 -18 -4 -6 -8
-2 -8 8 0 9 7 17 17 17 9 0 12 -3 7 -7z m33 -19 c-3 -3 -12 -4 -19 -1 -8 3 -5
6 6 6 11 1 17 -2 13 -5z m190 0 c-3 -3 -12 -4 -19 -1 -8 3 -5 6 6 6 11 1 17
-2 13 -5z m-2206 -145 c-6 -51 -8 -96 -5 -101 3 -4 2 -14 -3 -20 -4 -8 -10 0
-14 22 -4 20 -4 36 2 38 5 2 9 21 9 41 0 51 12 139 17 124 2 -6 0 -53 -6 -104z
m-18 41 c-3 -11 -7 -20 -9 -20 -2 0 -4 9 -4 20 0 11 4 20 9 20 5 0 7 -9 4 -20z
m2178 -24 c33 -14 34 -16 80 -193 25 -98 68 -254 94 -348 52 -187 71 -269 89
-393 13 -83 13 -83 -8 -77 -12 3 -49 9 -82 12 -73 7 -125 -14 -245 -94 -91
-61 -170 -106 -176 -99 -8 8 27 106 67 186 24 48 40 97 44 135 4 33 25 166 48
295 34 202 40 256 41 390 0 85 -3 165 -7 178 -9 26 6 29 55 8z m-2211 -34 c0
-7 -4 -10 -10 -7 -5 3 -10 16 -10 28 0 18 2 19 10 7 5 -8 10 -21 10 -28z m22
6 c-7 -7 -12 -8 -12 -2 0 14 12 26 19 19 2 -3 -1 -11 -7 -17z m-52 -68 c-7
-17 -9 -45 -5 -68 3 -22 3 -42 -2 -45 -14 -8 -15 75 -2 122 7 25 15 39 17 32
2 -6 -1 -25 -8 -41z m4041 32 c-7 -2 -18 1 -23 6 -8 8 -4 9 13 5 13 -4 18 -8
10 -11z m292 11 c-7 -2 -19 -2 -25 0 -7 3 -2 5 12 5 14 0 19 -2 13 -5z m-96
-9 c-3 -3 -12 -4 -19 -1 -8 3 -5 6 6 6 11 1 17 -2 13 -5z m-137 -29 c0 -2 -18
-5 -40 -7 -24 -2 -40 1 -40 7 0 6 16 9 40 7 22 -2 40 -5 40 -7z m57 9 c-3 -3
-12 -4 -19 -1 -8 3 -5 6 6 6 11 1 17 -2 13 -5z m-147 -8 c0 -3 -4 -8 -10 -11
-5 -3 -10 -1 -10 4 0 6 5 11 10 11 6 0 10 -2 10 -4z m-3973 -43 c-3 -10 -5 -4
-5 12 0 17 2 24 5 18 2 -7 2 -21 0 -30z m-26 0 c-12 -20 -14 -14 -5 12 4 9 9
14 11 11 3 -2 0 -13 -6 -23z m-44 -100 c-2 -16 -4 -3 -4 27 0 30 2 43 4 28 2
-16 2 -40 0 -55z m103 56 c0 -6 -4 -7 -10 -4 -5 3 -10 11 -10 16 0 6 5 7 10 4
6 -3 10 -11 10 -16z m4350 18 c0 -2 -12 -14 -27 -28 l-28 -24 24 28 c23 25 31
32 31 24z m-4353 -169 c-2 -24 -4 -5 -4 42 0 47 2 66 4 43 2 -24 2 -62 0 -85z
m-67 62 c0 -11 -7 -20 -15 -20 -8 0 -15 5 -15 11 0 5 5 7 10 4 6 -3 10 1 10 9
0 9 2 16 5 16 3 0 5 -9 5 -20z m4298 -50 c-22 -30 -35 -41 -22 -17 9 16 36 47
41 47 2 0 -6 -13 -19 -30z m-4321 -77 c-3 -10 -5 -4 -5 12 0 17 2 24 5 18 2
-7 2 -21 0 -30z m90 -35 c-2 -13 -4 -5 -4 17 -1 22 1 32 4 23 2 -10 2 -28 0
-40z m-89 -33 c-3 -3 -9 2 -12 12 -6 14 -5 15 5 6 7 -7 10 -15 7 -18z m-11
-57 c-3 -8 -6 -5 -6 6 -1 11 2 17 5 13 3 -3 4 -12 1 -19z m110 -40 c-3 -7 -5
-2 -5 12 0 14 2 19 5 13 2 -7 2 -19 0 -25z m-3172 -26 c19 -41 22 -43 58 -38
37 4 37 4 37 -32 0 -65 -5 -67 -117 -54 -54 7 -117 13 -140 15 -24 1 -43 3
-43 5 0 2 12 13 26 25 l26 22 -22 28 c-24 30 -16 34 26 13 34 -18 57 -8 79 35
22 41 45 34 70 -19z m3052 -14 c-3 -7 -5 -2 -5 12 0 14 2 19 5 13 2 -7 2 -19
0 -25z m-5049 -46 c13 -23 31 -42 40 -42 9 0 46 14 81 30 35 17 66 28 69 26 2
-3 -3 -37 -13 -76 l-17 -70 -97 -1 c-85 0 -116 -5 -241 -40 -16 -4 -16 0 -5
64 l6 38 44 -6 c51 -8 59 1 70 78 9 60 30 60 63 -1z m5179 6 c-3 -7 -5 -2 -5
12 0 14 2 19 5 13 2 -7 2 -19 0 -25z m-4186 -22 c90 -44 125 -45 239 -6 141
48 181 53 248 30 71 -25 94 -25 177 1 78 24 85 20 85 -47 l0 -41 68 0 c37 0
117 -8 179 -18 126 -20 148 -17 139 20 -6 22 -3 25 23 25 15 0 47 6 69 14 l41
15 26 -45 c14 -24 34 -45 43 -45 9 -1 25 -2 35 -3 9 -1 24 -14 33 -31 8 -16
32 -52 53 -80 37 -48 39 -54 45 -150 6 -101 57 -422 69 -442 4 -6 21 -14 37
-18 16 -4 43 -22 59 -42 33 -40 71 -146 71 -198 0 -211 -231 -541 -515 -735
-132 -89 -332 -179 -498 -221 -45 -11 -113 -32 -151 -45 -42 -14 -92 -24 -126
-24 -32 0 -82 -9 -116 -21 -49 -17 -93 -22 -257 -28 -151 -4 -207 -3 -235 7
-80 28 -268 62 -509 91 -299 37 -387 53 -513 93 -177 57 -279 117 -379 224
-158 169 -194 413 -85 576 41 60 38 71 -18 103 -30 16 -39 17 -52 6 -20 -17
-11 -31 20 -31 33 0 39 -21 20 -62 -28 -59 -90 -82 -144 -54 -60 31 -94 88
-94 157 0 65 25 103 86 131 58 25 175 31 214 10 21 -12 22 -11 22 21 0 19 -9
69 -21 113 -33 123 -59 246 -59 280 0 18 11 52 25 75 14 24 36 79 51 121 l25
77 39 -20 c27 -14 49 -19 68 -14 30 6 81 53 101 93 l12 23 30 -26 c17 -14 40
-25 52 -25 15 0 26 -10 35 -29 l13 -29 52 28 c69 37 149 52 275 53 106 0 108
1 103 45 -2 9 8 11 36 6 33 -5 44 -1 82 28 102 78 118 81 196 48 66 -28 112
-25 213 14 143 56 154 56 263 2z m8106 -13 c-3 -10 -5 -4 -5 12 0 17 2 24 5
18 2 -7 2 -21 0 -30z m-4094 -98 c-3 -9 -8 -14 -10 -11 -3 3 -2 9 2 15 9 16
15 13 8 -4z m-26 -64 c0 -11 -5 -18 -9 -15 -4 3 -5 11 -1 19 7 21 12 19 10 -4z
m-57 -111 c-6 -11 -13 -20 -16 -20 -2 0 0 9 6 20 6 11 13 20 16 20 2 0 0 -9
-6 -20z m7 -187 c-3 -10 -5 -2 -5 17 0 19 2 27 5 18 2 -10 2 -26 0 -35z m2328
-154 c-5 -56 -10 -77 -17 -68 -6 10 -8 5 -4 -16 3 -16 -4 -70 -14 -120 -12
-56 -16 -69 -12 -35 3 30 6 69 6 87 0 18 2 30 5 29 3 -2 7 20 8 50 0 30 -3 52
-8 48 -5 -3 -9 -26 -9 -52 0 -34 -3 -43 -10 -32 -13 20 -13 4 0 -19 6 -12 6
-34 0 -62 l-9 -44 3 43 c4 39 3 42 -10 25 -12 -16 -14 -15 -15 17 -2 33 -2 33
-6 6 -4 -22 -7 -26 -13 -16 -7 12 -10 11 -16 -5 -5 -13 -1 -23 14 -33 30 -20
30 -75 0 -96 -12 -9 -18 -16 -13 -16 5 0 -1 -9 -13 -20 -12 -11 -27 -20 -33
-20 -7 0 -23 -10 -36 -22 -20 -18 -23 -19 -23 -5 0 9 -4 17 -10 17 -6 0 -10
-33 -10 -80 l0 -80 -30 0 c-28 0 -30 -2 -30 -40 0 -29 -4 -40 -15 -40 -11 0
-15 11 -15 40 0 30 -4 40 -16 40 -12 0 -15 -10 -14 -42 3 -75 1 -88 -16 -88
-11 0 -14 6 -9 21 5 15 4 19 -4 15 -6 -4 -11 -18 -11 -32 0 -13 -4 -24 -10
-24 -14 0 -13 47 1 56 7 4 7 9 2 13 -13 9 -4 93 10 84 6 -4 7 -1 3 6 -9 13 12
141 23 141 3 0 7 11 7 25 1 13 15 54 32 89 28 59 33 65 56 60 16 -3 26 0 26 7
0 8 4 8 13 1 9 -8 12 0 13 34 0 27 -3 40 -7 32 -5 -7 -6 -21 -3 -32 4 -11 2
-16 -4 -12 -6 3 -12 1 -14 -6 -5 -13 -38 -21 -38 -9 0 5 14 27 31 51 30 41 32
42 45 25 14 -19 15 -18 37 4 l22 23 -24 -12 c-39 -20 -46 3 -12 41 17 18 33
30 36 27 3 -3 -1 -13 -10 -21 -8 -9 -15 -19 -15 -24 1 -4 9 2 20 15 10 13 17
28 15 35 -6 17 90 81 107 71 7 -4 9 -3 5 1 -7 8 34 38 42 30 2 -2 0 -41 -4
-86z m-4509 35 c31 -19 64 -93 64 -143 0 -48 -17 -85 -53 -119 -29 -27 -46
-22 -90 28 -31 34 -30 55 3 85 19 17 28 55 13 55 -4 0 -26 -18 -48 -40 l-42
-41 -13 41 c-12 36 -11 42 5 60 10 11 19 30 20 43 1 14 13 28 35 39 36 18 69
16 106 -8z m117 -266 c-6 -7 -8 -29 -5 -48 4 -27 6 -31 12 -16 8 23 41 30 55
13 6 -7 18 -16 26 -22 9 -5 44 -32 77 -59 59 -47 72 -74 30 -60 -15 4 -18 3
-13 -6 5 -9 4 -11 -4 -6 -9 6 -9 11 0 22 6 8 10 16 8 17 -2 1 -16 9 -31 17
-16 7 -28 19 -28 27 0 7 -8 13 -17 13 -9 0 -25 7 -35 17 -16 15 -18 15 -18 0
0 -9 8 -21 18 -26 9 -6 12 -11 6 -11 -16 0 -5 -50 11 -50 7 0 15 -7 19 -15 4
-11 -1 -15 -19 -15 -26 0 -42 -22 -41 -55 1 -19 -31 -52 -46 -47 -5 1 -9 -13
-9 -30 -2 -33 -2 -33 -6 -4 -3 16 -12 36 -20 45 -14 14 -15 13 -10 -4 16 -58
18 -70 9 -57 -7 11 -12 6 -20 -17 -7 -19 -7 -31 -1 -31 5 0 9 -9 9 -20 0 -14
-7 -20 -21 -20 -16 0 -19 4 -14 23 5 20 5 20 -9 -3 -19 -31 -20 -44 -3 -37 9
3 13 -5 12 -27 0 -25 4 -32 23 -34 12 -2 19 -8 16 -14 -4 -6 1 -8 14 -4 11 4
23 2 27 -3 4 -7 -1 -9 -12 -5 -16 5 -16 4 1 -10 11 -9 26 -16 33 -16 7 0 13
-4 13 -9 0 -5 12 -12 26 -15 15 -4 24 -10 21 -13 -14 -14 -205 108 -207 131 0
5 7 3 15 -4 9 -7 18 -10 22 -6 3 3 2 6 -4 6 -22 0 -21 31 2 87 26 65 46 142
66 252 10 56 10 80 1 104 -10 26 -9 34 5 49 18 20 32 16 16 -4z m33 -22 c1 -9
-5 -12 -17 -9 -22 6 -25 19 -6 26 14 5 20 1 23 -17z m4299 -113 c-10 -90 -12
-99 -25 -120 -9 -15 -10 -13 -4 12 3 17 6 49 5 73 -1 24 3 42 9 42 5 0 10 14
10 30 0 17 3 30 6 30 3 0 2 -30 -1 -67z m-4040 -87 c11 -8 16 -15 10 -16 -5 0
-23 12 -40 26 -31 26 -6 18 30 -10z m-175 -6 c0 -5 -4 -10 -9 -10 -6 0 -13 5
-16 10 -3 6 1 10 9 10 9 0 16 -4 16 -10z m225 -20 c3 -6 -1 -7 -9 -4 -18 7
-21 14 -7 14 6 0 13 -4 16 -10z m4053 -37 c-10 -2 -26 -2 -35 0 -10 3 -2 5 17
5 19 0 27 -2 18 -5z m139 1 c-3 -3 -12 -4 -19 -1 -8 3 -5 6 6 6 11 1 17 -2 13
-5z m-533 -180 c4 -9 4 -19 1 -22 -3 -3 -5 1 -6 9 0 8 -4 6 -9 -6 -8 -18 -9
-17 -9 8 -1 30 13 36 23 11z m0 -60 c4 -9 2 -13 -5 -8 -7 4 -10 1 -7 -7 3 -10
28 -16 79 -20 l74 -5 -77 -2 c-80 -2 -94 4 -83 38 8 24 11 25 19 4z m-3776
-18 c-7 -8 -15 -12 -17 -11 -5 6 10 25 20 25 5 0 4 -6 -3 -14z m4185 7 c-7 -2
-21 -2 -30 0 -10 3 -4 5 12 5 17 0 24 -2 18 -5z m-75 -10 c-10 -2 -28 -2 -40
0 -13 2 -5 4 17 4 22 1 32 -1 23 -4z m-120 -10 c-10 -2 -26 -2 -35 0 -10 3 -2
5 17 5 19 0 27 -2 18 -5z m-4031 -65 c-3 -8 -6 -5 -6 6 -1 11 2 17 5 13 3 -3
4 -12 1 -19z m-207 -98 c30 -12 93 -27 140 -34 l85 -12 0 -58 -1 -59 -71 -66
c-39 -36 -79 -81 -87 -98 -19 -39 -23 -141 -7 -201 10 -36 9 -47 -6 -72 -9
-17 -25 -32 -34 -35 -10 -3 -29 -36 -44 -72 -80 -199 -256 -350 -475 -404 -70
-18 -260 -16 -320 3 l-45 14 3 56 c2 36 -2 59 -10 66 -42 34 -178 61 -477 93
l-113 12 7 131 c4 72 9 134 12 139 2 4 19 7 38 7 19 0 71 12 117 26 46 15 150
42 232 60 172 39 230 64 453 196 177 105 292 206 382 331 l54 75 56 -38 c31
-21 81 -48 111 -60z m427 53 c12 -18 17 -58 21 -148 l5 -124 -34 9 c-19 6 -46
10 -60 10 -30 0 -30 2 -45 186 -6 76 -5 82 16 97 28 20 74 6 97 -30z m145
-244 c32 -17 58 -86 58 -159 0 -73 -26 -142 -58 -159 -42 -22 -45 -16 -37 67
10 104 8 130 -15 167 -20 32 -26 75 -13 88 10 10 42 8 65 -4z m-158 -103 c67
-28 82 -82 43 -151 l-23 -40 -89 -1 c-73 0 -89 -3 -87 -15 2 -7 8 -18 13 -23
13 -14 124 -20 157 -8 33 11 44 7 61 -25 9 -19 20 -23 56 -23 24 0 46 -4 49
-9 3 -5 -5 -29 -19 -53 -14 -23 -25 -51 -25 -60 0 -23 -3 -23 -148 13 -91 23
-140 30 -182 27 l-59 -4 6 29 c3 16 0 66 -7 112 -7 45 -10 99 -6 119 9 46 55
100 98 113 48 16 124 15 162 -1z m316 -62 c13 -34 12 -91 -3 -133 -12 -33 -61
-80 -72 -69 -3 3 1 46 9 96 20 125 44 164 66 106z m-2329 -234 c15 0 18 -18
24 -125 8 -137 2 -207 -21 -230 -19 -18 -137 -19 -264 -2 l-85 12 -7 55 c-4
30 -8 105 -10 165 l-3 110 140 11 c77 7 156 10 175 8 19 -2 42 -4 51 -4z
m2053 -164 c42 -15 99 -38 127 -51 l49 -25 0 -61 c0 -33 -5 -93 -11 -132 -45
-308 -195 -521 -459 -656 -195 -100 -376 -140 -665 -148 l-190 -6 -35 -40
c-19 -23 -34 -46 -33 -52 5 -27 33 -352 38 -450 4 -60 9 -132 11 -160 2 -27 7
-249 11 -492 l6 -441 -34 -6 c-140 -21 -674 -56 -872 -56 l-187 0 -47 60 c-25
33 -51 60 -58 60 -6 0 -31 -21 -55 -46 -91 -93 -70 -89 -521 -88 l-395 2 -85
27 c-46 15 -108 29 -136 32 l-53 6 0 146 c0 245 25 476 129 1201 23 159 34
269 29 275 -17 19 -284 10 -398 -14 -115 -24 -357 -104 -600 -199 -215 -83
-198 -80 -216 -35 -9 21 -38 74 -64 118 -59 99 -82 163 -84 238 -1 69 -24 48
239 225 354 239 478 296 875 401 41 11 113 27 160 36 91 17 308 32 333 22 19
-7 8 -70 -39 -219 -19 -60 -34 -117 -34 -125 0 -13 12 -15 81 -9 82 8 156 25
377 90 150 44 230 55 243 35 16 -26 9 -103 -17 -184 -33 -104 -88 -382 -109
-560 -28 -227 -12 -518 41 -735 37 -151 171 -567 191 -590 8 -8 105 32 157 65
69 44 183 164 240 253 88 136 154 308 180 470 11 67 19 90 35 100 26 18 27 48
2 62 -17 9 -19 18 -14 84 12 158 -29 323 -143 575 -41 90 -84 192 -96 226
l-22 63 51 54 c54 58 86 112 98 166 9 42 11 41 135 -113 54 -66 114 -138 134
-160 l36 -40 31 35 c17 19 67 96 111 170 44 74 86 145 94 157 l13 21 78 -26
c69 -22 95 -25 223 -26 157 -1 256 15 385 61 124 45 180 93 236 206 43 84 103
170 131 189 84 55 223 60 362 14z m-2829 -235 c113 -7 248 -1 305 13 23 6 26
3 36 -41 11 -44 9 -50 -16 -93 -15 -25 -31 -55 -34 -67 -5 -16 -26 -28 -84
-47 -143 -47 -571 -161 -577 -154 -12 11 33 189 73 289 l47 120 65 -6 c36 -3
119 -10 185 -14z m1090 -2 c231 -27 305 -41 305 -58 0 -29 -31 -123 -57 -176
-32 -64 -154 -255 -163 -255 -14 0 -179 178 -213 230 -42 64 -82 165 -92 234
l-8 48 74 -6 c41 -4 110 -11 154 -17z m-291 -50 l38 -14 -7 -55 c-12 -95 -26
-151 -37 -144 -7 4 -8 2 -4 -4 10 -16 -32 -94 -46 -86 -6 4 -8 3 -5 -3 4 -6
-4 -19 -16 -31 l-22 -20 -100 23 c-116 26 -217 59 -251 82 -17 11 -24 25 -24
47 0 50 28 120 63 161 29 33 39 38 87 42 30 2 87 7 125 11 92 10 154 7 199 -9z
m-315 -354 c154 -39 163 -44 184 -103 9 -27 40 -98 68 -157 51 -109 54 -130
22 -142 -24 -9 -214 -125 -338 -205 -154 -100 -245 -149 -245 -133 0 8 11 92
25 188 52 365 117 597 163 583 9 -3 64 -17 121 -31z m-2458 -522 c76 -129 102
-203 102 -293 0 -57 -5 -88 -23 -127 -22 -51 -24 -53 -61 -53 -25 0 -39 5 -39
13 0 6 -5 29 -11 50 -13 48 -40 49 -82 2 -29 -33 -35 -35 -90 -35 l-60 0 6 41
c6 42 18 57 78 89 48 25 69 47 69 70 0 17 -6 17 -87 -11 -87 -29 -166 -38
-178 -19 -10 16 38 56 90 74 28 10 72 26 99 36 38 15 53 17 69 8 11 -6 44 -11
73 -12 42 -1 56 3 68 19 21 29 12 35 -55 35 -34 0 -73 7 -89 15 -28 14 -34 14
-92 -10 -34 -14 -68 -25 -76 -25 -51 0 -71 89 -29 127 32 30 99 62 165 77 98
24 95 26 153 -71z m2850 -63 c30 -85 49 -212 49 -330 l0 -107 -162 -73 c-90
-40 -241 -110 -337 -156 -95 -46 -177 -84 -181 -84 -4 0 -22 62 -41 138 -36
150 -48 283 -30 343 15 51 72 98 195 160 56 29 137 77 181 108 168 117 176
121 215 121 22 0 42 5 46 12 8 13 31 -34 65 -132z m31 -532 c3 -7 -4 -48 -14
-93 -61 -266 -166 -465 -305 -579 -55 -46 -168 -116 -187 -116 -26 0 -143 338
-153 441 -5 55 -5 56 33 87 49 41 175 106 234 122 25 7 74 26 110 42 59 28
256 105 272 107 3 1 8 -4 10 -11z m-407 -1004 c8 -9 22 -29 30 -45 9 -16 26
-31 38 -34 13 -4 97 1 188 9 90 8 209 18 264 21 55 4 120 8 145 10 25 2 116 6
203 10 141 7 157 6 157 -8 0 -9 12 -101 26 -204 30 -222 41 -315 94 -773 47
-411 48 -415 60 -538 6 -54 15 -137 20 -187 12 -117 13 -112 -7 -118 -265 -80
-397 -109 -868 -187 -104 -18 -193 -34 -197 -37 -11 -6 -10 29 7 142 30 203
40 605 26 987 -7 194 -15 375 -18 402 l-5 49 71 -7 c71 -7 111 -2 111 13 0 17
-57 31 -135 35 -44 2 -114 7 -156 11 -64 6 -78 5 -92 -10 -14 -14 -15 -20 -5
-32 9 -11 29 -14 77 -11 l66 3 7 -55 c13 -105 39 -443 43 -569 9 -302 -23
-758 -72 -1011 l-16 -85 -176 3 c-128 2 -224 10 -351 29 -132 20 -208 26 -308
25 -181 -2 -221 19 -208 112 12 84 26 401 31 736 10 595 25 1163 32 1203 l6
39 366 -4 c355 -3 367 -2 411 18 25 12 56 33 69 48 28 30 43 32 66 10z m1117
-1961 c23 -21 23 -34 1 -26 -16 6 -15 3 2 -17 17 -20 18 -23 3 -17 -23 8 -48
-2 -48 -19 0 -8 -6 -14 -12 -14 -13 0 -38 -44 -38 -67 0 -7 -6 -13 -12 -13 -7
0 -22 -18 -32 -40 -11 -22 -23 -40 -28 -40 -4 0 -8 -7 -8 -15 0 -8 -4 -15 -9
-15 -16 0 -60 -88 -48 -94 7 -2 0 -5 -15 -5 -39 -1 -44 -19 -6 -24 20 -2 9 -5
-27 -6 -33 -1 -166 -6 -295 -11 -129 -5 -239 -5 -243 -1 -5 5 -2 68 5 142 l13
133 70 18 c39 9 151 31 250 48 213 37 351 66 403 85 49 18 52 18 74 -2z
m-1662 -275 c47 -7 76 -14 66 -16 -15 -3 -16 -6 -5 -13 10 -6 8 -9 -9 -9 -16
0 -26 -8 -33 -30 -6 -16 -19 -32 -29 -35 -10 -3 -21 -17 -24 -30 -3 -13 -19
-38 -36 -56 -16 -18 -27 -36 -24 -41 3 -4 -1 -8 -8 -8 -11 0 -11 -2 0 -9 8 -4
-41 -11 -115 -14 -185 -10 -483 -8 -483 2 0 21 33 100 63 149 44 73 112 108
193 98 31 -3 63 -2 74 4 25 14 174 28 235 23 28 -2 88 -9 135 -15z"/>
<path d="M3187 8713 c-11 -10 -8 -61 3 -68 6 -4 17 -4 24 -2 11 4 11 13 2 41
-11 36 -17 42 -29 29z"/>
<path d="M3316 8703 c-9 -9 -7 -46 3 -62 5 -8 16 -11 30 -6 20 6 20 8 6 35
-17 32 -29 43 -39 33z"/>
<path d="M4287 8353 c-14 -13 -7 -33 11 -33 19 0 42 18 42 32 0 10 -44 11 -53
1z"/>
<path d="M4413 8250 c-13 -5 -23 -13 -23 -19 0 -5 10 -11 23 -15 23 -6 52 19
41 35 -6 11 -12 10 -41 -1z"/>
<path d="M1454 8215 c-16 -25 -13 -55 5 -55 16 0 44 48 37 65 -8 22 -23 18
-42 -10z"/>
<path d="M1365 8171 c-17 -34 -20 -71 -5 -71 11 0 40 53 40 74 0 28 -19 27
-35 -3z"/>
<path d="M10170 7210 c-33 -33 -23 -55 25 -55 39 0 40 1 40 35 0 28 -4 36 -22
38 -12 2 -31 -6 -43 -18z"/>
<path d="M10347 7191 c-24 -41 -23 -81 3 -81 25 0 60 34 60 58 0 17 -28 52
-41 52 -3 0 -12 -13 -22 -29z"/>
<path d="M12074 9265 c-8 -21 23 -65 46 -65 20 0 50 25 50 42 0 32 -85 52 -96
23z"/>
<path d="M12288 9229 c-23 -13 -32 -67 -18 -103 l11 -30 21 21 c14 14 22 39
26 72 5 54 -3 62 -40 40z"/>
<path d="M6095 8948 c-32 -17 -45 -39 -45 -75 0 -52 51 -37 76 22 25 61 15 79
-31 53z"/>
<path d="M6320 8816 c-16 -21 -9 -60 13 -64 25 -5 57 26 57 55 0 19 -5 23 -29
23 -16 0 -34 -7 -41 -14z"/>
<path d="M5650 8737 c-74 -18 -107 -36 -215 -124 -103 -83 -140 -137 -170
-253 -23 -87 -23 -293 -1 -420 20 -108 74 -279 114 -359 26 -51 32 -56 125
-103 103 -52 223 -88 291 -88 68 0 116 11 116 27 0 25 -38 89 -85 144 -26 30
-55 71 -66 91 l-19 38 40 25 c22 14 41 25 44 25 2 0 33 18 69 39 89 55 154 84
171 78 8 -3 39 -37 69 -75 31 -38 65 -72 76 -75 24 -6 104 30 148 67 184 155
115 607 -122 798 -159 129 -423 203 -585 165z m158 -54 c-36 -3 -48 -8 -48
-20 0 -27 -31 -53 -64 -54 -28 -1 -29 -2 -7 -8 27 -7 19 -17 -34 -40 -53 -23
-60 -28 -57 -37 2 -4 -5 -12 -15 -16 -11 -5 0 -6 27 -3 25 3 52 1 60 -5 13 -9
13 -10 0 -11 -8 0 0 -5 19 -10 55 -16 29 -19 -29 -4 -30 8 -88 18 -127 21 -40
4 -73 11 -73 16 0 6 20 31 45 56 35 35 48 43 57 34 7 -7 16 -12 22 -12 5 0 1
6 -9 14 -18 13 -16 16 37 40 31 14 64 23 72 20 9 -3 16 -1 16 4 0 13 37 19
105 19 l50 -1 -47 -3z m-53 -241 c-3 -3 -11 0 -18 7 -9 10 -8 11 6 5 10 -3 15
-9 12 -12z m-115 -88 c170 -57 273 -168 312 -335 15 -62 14 -63 -130 -140
-138 -74 -202 -120 -260 -184 l-50 -56 -20 33 c-33 53 -70 175 -83 273 -16
121 -4 276 32 408 l10 39 57 -7 c31 -4 91 -18 132 -31z m70 -729 c8 -9 9 -15
2 -15 -6 0 -14 5 -17 10 -9 15 -25 2 -25 -20 0 -10 -15 -35 -34 -54 -34 -37
-29 -50 8 -18 21 17 21 17 3 -4 -9 -11 -14 -24 -10 -27 12 -12 -13 -7 -31 6
-18 13 -17 15 7 34 15 11 23 23 20 27 -3 3 0 6 7 6 7 0 10 3 7 6 -9 9 25 64
39 64 6 0 17 -7 24 -15z"/>
<path d="M5713 8658 c-23 -11 -29 -23 -15 -31 7 -5 52 27 52 37 0 8 -11 6 -37
-6z"/>
<path d="M5660 8650 c-9 -6 -10 -10 -3 -10 6 0 15 5 18 10 8 12 4 12 -15 0z"/>
<path d="M5600 8621 c0 -17 32 -21 58 -6 31 17 25 19 -12 5 -17 -6 -26 -6 -26
0 0 6 -4 10 -10 10 -5 0 -10 -4 -10 -9z"/>
<path d="M5503 8538 c1 -15 6 -23 11 -18 4 4 4 16 -2 26 -9 16 -10 14 -9 -8z"/>
<path d="M5551 8536 c-20 -11 -21 -14 -7 -19 10 -4 15 -3 11 3 -3 6 1 10 9 10
9 0 16 5 16 10 0 12 0 12 -29 -4z"/>
<path d="M5628 8493 c6 -2 18 -2 25 0 6 3 1 5 -13 5 -14 0 -19 -2 -12 -5z"/>
<path d="M9150 9340 c-9 -19 -9 -22 0 -13 7 6 19 9 26 6 8 -3 14 0 14 7 0 6
-4 9 -9 6 -5 -4 -11 0 -13 6 -3 8 -10 3 -18 -12z"/>
<path d="M9215 9232 c-4 -52 -11 -89 -15 -82 -4 7 -11 -5 -18 -29 -8 -33 -7
-41 4 -41 8 0 15 -6 15 -12 3 -29 17 52 19 112 l3 65 7 -50 c7 -48 7 -48 8
-10 0 22 -3 63 -7 90 -7 49 -8 48 -16 -43z"/>
<path d="M9090 9267 l-23 -32 29 27 c15 15 26 30 23 33 -3 2 -16 -10 -29 -28z"/>
<path d="M9156 9173 c-6 -14 -5 -15 5 -6 7 7 10 15 7 18 -3 3 -9 -2 -12 -12z"/>
<path d="M9061 9150 c0 -8 4 -24 9 -35 7 -16 9 -17 9 -3 1 9 4 25 7 35 4 13 3
15 -4 4 -8 -11 -10 -11 -15 0 -4 11 -5 11 -6 -1z"/>
<path d="M11297 9363 c-4 -3 -7 -11 -7 -17 0 -6 5 -5 12 2 6 6 9 14 7 17 -3 3
-9 2 -12 -2z"/>
<path d="M11287 9313 c3 -7 6 -13 8 -13 2 0 5 6 8 13 3 8 -1 14 -8 14 -7 0
-11 -6 -8 -14z"/>
<path d="M11311 9284 c0 -11 3 -14 6 -6 3 7 2 16 -1 19 -3 4 -6 -2 -5 -13z"/>
<path d="M11291 9238 c1 -13 5 -36 9 -53 6 -24 7 -19 6 22 0 29 -4 53 -8 53
-5 0 -7 -10 -7 -22z"/>
<path d="M11322 9223 c-3 -44 3 -42 11 5 4 17 3 32 -1 32 -4 0 -9 -17 -10 -37z"/>
<path d="M11020 9191 c0 -6 4 -13 10 -16 6 -3 7 1 4 9 -7 18 -14 21 -14 7z"/>
<path d="M11213 9153 c-13 -5 -19 -53 -7 -53 9 0 30 24 37 43 6 17 -4 21 -30
10z"/>
<path d="M11020 9130 c0 -5 5 -10 10 -10 6 0 10 5 10 10 0 6 -4 10 -10 10 -5
0 -10 -4 -10 -10z"/>
<path d="M10951 9094 c0 -11 3 -14 6 -6 3 7 2 16 -1 19 -3 4 -6 -2 -5 -13z"/>
<path d="M10931 8942 c-1 -12 6 -25 15 -29 11 -4 15 -16 12 -42 -2 -20 2 -38
7 -41 17 -8 17 58 1 82 -9 12 -16 18 -17 13 -1 -6 -5 1 -9 15 -8 24 -8 24 -9
2z"/>
<path d="M11100 8935 c-10 -12 -10 -15 4 -15 9 0 16 7 16 15 0 8 -2 15 -4 15
-2 0 -9 -7 -16 -15z"/>
<path d="M11031 8744 c0 -11 3 -14 6 -6 3 7 2 16 -1 19 -3 4 -6 -2 -5 -13z"/>
<path d="M7852 7910 c-6 -11 -12 -29 -12 -40 0 -16 7 -20 30 -20 30 0 32 3 32
40 0 36 -2 40 -20 40 -9 0 -23 -9 -30 -20z"/>
<path d="M7981 7808 c-6 -17 -11 -46 -11 -64 0 -27 4 -34 20 -34 48 0 64 96
20 120 -15 8 -20 5 -29 -22z"/>
<path d="M7186 9102 c-2 -4 4 -8 14 -8 10 0 16 4 14 8 -3 4 -9 8 -14 8 -5 0
-11 -4 -14 -8z"/>
<path d="M7084 9028 l-19 -23 24 20 24 20 -7 -20 c-6 -16 -5 -18 5 -7 9 8 10
15 3 22 -7 7 -17 3 -30 -12z"/>
<path d="M7217 8995 c8 -39 10 -41 15 -11 3 14 2 23 -3 21 -4 -3 -10 1 -13 7
-3 7 -3 0 1 -17z"/>
<path d="M6990 8940 c-8 -15 -8 -20 3 -20 7 0 13 9 13 20 0 11 -1 20 -3 20 -1
0 -7 -9 -13 -20z"/>
<path d="M7024 8949 c-3 -6 -2 -15 3 -20 5 -5 9 -1 9 11 0 23 -2 24 -12 9z"/>
<path d="M7202 8909 c-1 -20 -9 -42 -17 -49 -9 -8 -15 -29 -15 -55 0 -24 -4
-45 -10 -47 -5 -2 -6 -9 -1 -17 15 -23 31 -2 31 40 0 22 5 49 11 60 5 11 8 39
6 62 -3 41 -4 41 -5 6z"/>
<path d="M7025 8820 c-3 -5 -1 -10 4 -10 6 0 11 5 11 10 0 6 -2 10 -4 10 -3 0
-8 -4 -11 -10z"/>
<path d="M7016 8721 c4 -23 3 -31 -5 -27 -6 4 -11 3 -11 -3 0 -14 20 -25 30
-15 4 5 1 25 -6 44 l-14 35 6 -34z"/>
<path d="M7122 8720 c0 -14 2 -19 5 -12 2 6 2 18 0 25 -3 6 -5 1 -5 -13z"/>
<path d="M7022 8640 c0 -14 2 -19 5 -12 2 6 2 18 0 25 -3 6 -5 1 -5 -13z"/>
<path d="M10440 9139 c0 -5 5 -7 10 -4 6 3 10 8 10 11 0 2 -4 4 -10 4 -5 0
-10 -5 -10 -11z"/>
<path d="M3842 7699 c-118 -20 -188 -70 -236 -171 -74 -156 -74 -343 1 -480
66 -121 245 -179 418 -137 134 32 265 135 319 249 27 57 30 76 30 155 0 80 -3
97 -29 150 -59 117 -172 201 -313 231 -74 15 -112 16 -190 3z m183 -49 c157
-36 229 -85 280 -187 23 -48 28 -71 29 -133 1 -127 -64 -238 -186 -320 -115
-77 -254 -100 -362 -59 -217 81 -259 493 -68 654 45 38 148 74 192 68 19 -3
71 -13 115 -23z"/>
<path d="M1907 7599 c-126 -30 -231 -149 -266 -299 -46 -199 41 -426 191 -499
209 -101 470 18 586 267 23 49 27 70 27 152 0 84 -3 102 -28 152 -84 171 -313
273 -510 227z m208 -41 c63 -16 134 -56 187 -106 158 -148 140 -372 -44 -537
-148 -133 -350 -152 -480 -45 -21 18 -51 59 -70 98 -32 64 -33 71 -33 187 0
102 4 130 24 187 70 193 214 268 416 216z"/>
<path d="M3230 7293 c0 -45 26 -204 69 -418 21 -110 42 -227 45 -261 l7 -61
-73 -7 c-107 -10 -148 -56 -49 -56 50 0 161 19 173 29 8 7 -31 232 -97 564
-34 169 -52 237 -61 237 -9 0 -14 -11 -14 -27z"/>
<path d="M4433 6903 c-17 -6 -16 -35 1 -59 20 -26 35 -8 29 34 -5 32 -8 35
-30 25z"/>
<path d="M4350 6812 c0 -25 19 -42 47 -42 33 0 31 37 -3 50 -36 14 -44 13 -44
-8z"/>
<path d="M1582 6578 c-16 -16 -15 -48 1 -48 14 0 57 41 57 53 0 12 -45 8 -58
-5z"/>
<path d="M1647 6524 c-31 -28 -31 -51 -1 -46 25 4 54 39 47 57 -7 21 -14 19
-46 -11z"/>
<path d="M4050 6519 c-126 -46 -187 -63 -380 -108 -329 -77 -517 -97 -819 -88
-221 7 -316 15 -564 48 -182 25 -333 23 -383 -4 -17 -9 -37 -30 -44 -48 -12
-27 -11 -36 4 -64 20 -36 85 -87 141 -111 190 -79 906 -106 1305 -49 58 8 182
22 275 30 94 8 193 20 220 26 102 23 349 155 432 232 44 41 68 93 61 137 -3
24 -6 25 -83 27 -68 3 -92 -2 -165 -28z m-349 -254 c38 -19 79 -54 79 -67 0
-4 -14 -8 -31 -8 -17 0 -157 -16 -312 -35 -155 -19 -298 -37 -317 -40 -151
-18 -580 -16 -580 4 0 15 109 71 180 93 60 18 97 23 180 22 111 -1 164 -14
222 -55 42 -30 76 -28 131 9 52 37 74 46 177 79 90 28 213 27 271 -2z"/>
<path d="M9237 7328 c-4 -12 -4 -24 -2 -27 3 -2 5 1 5 8 0 7 4 10 8 7 4 -2 9
4 9 15 2 26 -13 24 -20 -3z"/>
<path d="M9100 7170 c-9 -6 -10 -10 -3 -10 6 0 15 5 18 10 8 12 4 12 -15 0z"/>
<path d="M9120 7068 c0 -7 -7 -26 -15 -42 -14 -27 -14 -28 4 -23 15 3 18 1 14
-11 -4 -10 -2 -13 5 -8 15 9 16 96 2 96 -5 0 -10 -6 -10 -12z"/>
<path d="M8937 7010 c-3 -11 -1 -20 4 -20 5 0 9 9 9 20 0 11 -2 20 -4 20 -2 0
-6 -9 -9 -20z"/>
<path d="M8915 6960 c-3 -11 -3 -24 0 -30 8 -13 25 -3 25 13 0 7 -4 6 -11 -3
-8 -12 -9 -9 -5 13 7 31 0 37 -9 7z"/>
<path d="M8871 6694 c0 -11 3 -14 6 -6 3 7 2 16 -1 19 -3 4 -6 -2 -5 -13z"/>
<path d="M4878 6920 c-3 -16 -1 -35 3 -42 8 -12 10 -10 23 35 2 6 -2 17 -9 24
-10 9 -14 6 -17 -17z"/>
<path d="M4871 6828 c-1 -20 4 -40 9 -43 6 -4 10 6 10 22 0 22 2 25 10 13 8
-13 10 -12 10 3 0 9 -6 17 -14 17 -8 0 -17 6 -19 13 -3 6 -6 -5 -6 -25z"/>
<path d="M4851 6793 c-1 -17 4 -35 9 -38 11 -7 11 9 0 45 -8 24 -8 24 -9 -7z"/>
<path d="M4821 6723 c-1 -6 -4 -20 -7 -30 -5 -17 -5 -17 6 0 6 10 9 23 6 30
-3 9 -5 9 -5 0z"/>
<path d="M2592 1878 c-7 -7 -12 -29 -12 -49 0 -32 4 -38 28 -47 50 -17 84 19
42 46 -11 7 -20 23 -20 37 0 27 -18 33 -38 13z"/>
<path d="M2465 1706 c-20 -52 -14 -66 32 -66 34 0 36 15 10 66 l-24 47 -18
-47z"/>
<path d="M3570 1265 c-14 -42 -5 -75 20 -75 37 0 53 65 24 94 -23 23 -31 20
-44 -19z"/>
<path d="M3660 1194 c-12 -31 -7 -54 12 -54 24 0 39 17 41 46 2 23 -2 30 -20
32 -17 3 -26 -4 -33 -24z"/>
</g>
</svg>
